PathFileType	4	(X/Y/Z)	E-squat_0-154.trc
DataRate	CameraRate	NumFrames	NumMarkers	Units	OrigDataRate	OrigDataStartFrame	OrigNumFrames
30	30	5	22	m	30	57	154
Frame#	Time	Hip			RHip			RKnee			RAnkle			RBigToe			RSmallToe			RHeel			LHip			LKnee			LAnkle			LBigToe			LSmallToe			LHeel			Neck			Head			Nose			RShoulder			RElbow			RWrist			LShoulder			LElbow			LWrist			
		X1	Y1	Z1	X2	Y2	Z2	X3	Y3	Z3	X4	Y4	Z4	X5	Y5	Z5	X6	Y6	Z6	X7	Y7	Z7	X8	Y8	Z8	X9	Y9	Z9	X10	Y10	Z10	X11	Y11	Z11	X12	Y12	Z12	X13	Y13	Z13	X14	Y14	Z14	X15	Y15	Z15	X16	Y16	Z16	X17	Y17	Z17	X18	Y18	Z18	X19	Y19	Z19	X20	Y20	Z20	X21	Y21	Z21	X22	Y22	Z22	
57	1.9	-0.0025233924299267476	0.8129985166809701	0.09615612094218594	-0.10887400850929771	0.7940691191777254	0.07755409736434521	-0.1176070493490975	0.38695221437848254	0.04545823315276237	-0.13974200837519848	0.005764563825667936	0.0047849650528776445	-0.11661639955283584	-0.08009805401186712	0.18983520225621384	-0.17566163427108922	-0.07933378276002997	0.14704933219254107	-0.13254887759952327	-0.06356271198739583	-0.02871459191866839	0.09305401073174324	0.7901750951408136	0.11194489021308389	0.11503880239035016	0.37555108178814806	0.04506295541211384	0.12955611498394595	-0.004527660308706819	0.004798257778669643	0.13024783924985678	-0.08230206634268643	0.1742977192127444	0.18666301097326538	-0.07380201100691511	0.15277980096181304	0.11541265619498293	-0.05785677677834036	-0.032439884149254916	-0.009401068637717358	1.4059714567499193	0.18186059204001453	-0.010994629854813955	1.621426332618262	0.25433628498419697	-0.006878259604099501	1.4684302275908048	0.3187690529015455	-0.1697306179420078	1.320079031624704	0.13483931865772447	-0.21471124314226775	1.0414756159347256	0.07750390880675867	-0.24210129332485236	0.7906396702817242	0.12795767959816923	0.14556498440062068	1.3297348883747147	0.1738399694099839	0.19187007500678394	1.0431042699232473	0.12959856638521577	0.22514138363389485	0.7955809823056571	0.18260583614950346	
58	1.933333333333333	-0.0037663783233981584	0.8115339822514632	0.09021149347630913	-0.1097136421355192	0.792236622613612	0.07156711869347379	-0.11694204622466343	0.3877631660861403	0.04547749284012519	-0.13971966163973984	0.006497194102581723	0.006614523407796281	-0.1165791907827908	-0.07867733885831468	0.19018872776164658	-0.17477165405488673	-0.07904793643399621	0.14693204253049744	-0.1317562446455901	-0.06308365448692692	-0.02880108944635624	0.09244314086812387	0.7877202188372217	0.10588914299215402	0.11506840531245438	0.3759015213158522	0.04540395926903908	0.1296265384646624	-0.00439318182909542	0.0043836157808959525	0.1294850581552467	-0.08462692226761097	0.1743399398867164	0.18689060085251122	-0.07483170546674764	0.15290416538354032	0.1147371236814362	-0.058960284163876914	-0.0337388588588875	-0.009073659638783834	1.4007864513409856	0.18909488797745339	-0.008116596733963002	1.6090763357148423	0.27733950496860693	-0.007934139040471952	1.4536674082449936	0.32852052366973006	-0.1691850411751436	1.3206154744009462	0.1370782098311883	-0.21574636012923812	1.0431086475202984	0.07754779378897192	-0.24483340485896105	0.7930510610777293	0.1217514069621845	0.14438166770480784	1.3282014788251038	0.17494985130182295	0.19175361001944324	1.0442803256782238	0.1264042161101471	0.22633240125114953	0.7940874496437934	0.16902173210190571	
59	1.9666666666666663	-0.005630317943998212	0.810315289480154	0.07969438316841518	-0.11061317213649936	0.7905342436626424	0.06182367891079929	-0.11558245187872004	0.3882237962436534	0.047475274009442466	-0.14033912181925218	0.007280317716461784	0.007976014654854709	-0.11613687798818512	-0.07721918410717511	0.188923669051119	-0.1743668342907411	-0.07844580759714487	0.14652677102332695	-0.131437732928721	-0.06238231511752627	-0.029156560182856377	0.09151929039495205	0.786698027297748	0.09689244277297843	0.11380229328719896	0.3765117071370626	0.04754772160993059	0.12914368320168246	-0.0022324463178532835	0.005338047463418443	0.12952854976319006	-0.08475153317250461	0.1745279305297933	0.18792500302842252	-0.07491054024345926	0.15312399320421208	0.11486479618801286	-0.05946122201845419	-0.03385675857927852	-0.008833319649157194	1.392204900163501	0.19552795175870416	-0.006879529694990714	1.5928597410353054	0.3069878234793848	-0.009481476038081563	1.4365288472191704	0.3397394230361555	-0.16894910160686524	1.3202726811292664	0.13997052140734143	-0.2163112971564911	1.044435593011453	0.07491510027533757	-0.24814787899594784	0.7951555640913403	0.11774396522607915	0.14449347511536587	1.3240652747775776	0.17949892874088863	0.19228697574131334	1.0440222985611194	0.12677481935597007	0.22714587450489795	0.7936826104586858	0.16155446050928188	
60	2.0	-0.008651185129352283	0.8110946812009252	0.06245740428120004	-0.11223634726432441	0.7935109736842335	0.047480398343882964	-0.11379337463675748	0.3894922098543017	0.05302894688452416	-0.1410835087063078	0.007255650356437857	0.008242772550824345	-0.1162536841781631	-0.07643979287104546	0.18726456312981782	-0.17564835089997652	-0.07752713882040693	0.14740699286478037	-0.131929957459622	-0.06199090610266417	-0.030742415972689587	0.08983612568528677	0.790061263859138	0.08187461229105009	0.11203012661851248	0.37878324076518666	0.05084282973831456	0.1286047073303296	0.0005603020510610837	0.007659037923872624	0.13039442519771544	-0.08328169216241044	0.1742100231413979	0.18949369215023573	-0.07409383750602574	0.15327384265705216	0.11533048636782005	-0.05892617073455545	-0.03224026299773323	-0.007983361027367214	1.3802488123851109	0.2022999383080015	-0.006217208181214692	1.5740686265649497	0.3432832879398661	-0.010453449198578891	1.418516680564255	0.3534857423268988	-0.16857135034460208	1.3181946394937885	0.14648694959998138	-0.2183198472188545	1.044776468287596	0.0716375320740419	-0.2518771037630491	0.7952144404952374	0.11587872163240398	0.14596969751246103	1.3177944554458696	0.18750743434085848	0.19331931885308778	1.041938602258729	0.12952037787208298	0.22714393320578902	0.7928694227533356	0.15737724486820612	
61	2.033333333333333	-0.012416761357858764	0.8118050203231854	0.03986767651296702	-0.11454403031648212	0.7985903227103948	0.02935229398046827	-0.11310692527815522	0.390682973731636	0.06329311563327877	-0.14128633459299234	0.005963670000312161	0.008103369618674073	-0.11733157930745655	-0.0764430822294538	0.1864536768812204	-0.17786412439313917	-0.07682046581130382	0.15012197981740794	-0.13277936015064576	-0.06271386576893415	-0.03361206159866673	0.08786734511011475	0.7945216979149801	0.06072768015610574	0.11097635234596975	0.3807247882729528	0.05517812523217204	0.1286594393731024	0.0013121587477481658	0.009921922997940561	0.13142751273102274	-0.0820165664380018	0.17361607975947888	0.19032555059180215	-0.07367580791204222	0.15261810950609828	0.11564932938213951	-0.05879705205794995	-0.029628244878550765	-0.006413875884458094	1.3661739532313781	0.21213405396774318	-0.005196260767236762	1.55352477210032	0.38001366730710573	-0.010290946639339993	1.39790237587099	0.36886242362468824	-0.16748713518017194	1.3126278585783018	0.15910453564369625	-0.222474565418399	1.0432216321671772	0.07314007824556225	-0.25625144484342993	0.7927128188153582	0.11469717951778942	0.14749433958039487	1.3099730020051878	0.19714304791810033	0.1950162002683009	1.0370656360898989	0.13125716671054163	0.22738228947891018	0.7878936938512076	0.14633095750479194	
